<svg xmlns="http://www.w3.org/2000/svg" viewBox="0 0 1000 971.2" role="img" data-gemeente="Zwartewaterland" data-bounds="5.971341,52.551841,6.166814,52.667937"><title>Zwartewaterland</title><path fill="currentColor" fill-rule="evenodd" d="M507.75,913.18L505.47,914.22 469.94,839.11 318.76,907.97 214.85,682.85 213.83,686.81 62.87,754.2 10.68,639.34 9.44,629.41 4,616.12 31.06,570.53 49.18,525.43 86.33,474.5 101.74,458.21 104.61,451.75 110.28,418.57 107.55,387.21 88.29,367.93 94.35,365.91 88.59,365.14 88,363.16 94.91,363.56 95.4,361.85 83.39,363.05 80.34,359.99 86.01,359.63 87.36,357.03 83.68,353.6 82.59,340.75 97.02,357.42 204.18,259.47 210.38,260.99 209.63,284.22 212.06,284.49 212.22,259.36 207.21,256.32 216.24,241.43 213.13,239.93 214.71,237.9 220.34,239.74 222.31,243.36 239.98,243.52 244.36,251.25 253.15,253.2 252.73,246.88 262.24,239.83 259.8,230.85 257.24,229.32 257.49,224.24 274.75,218.37 343.34,156.96 427.87,151 444.62,134.01 461.07,129.1 497.98,99.99 583.66,42.68 643.53,31.46 656.51,63.03 661.99,56.89 668.94,41.21 671.13,43.44 694.41,23.39 735.69,8.46 756.22,4 755.73,23.18 759.8,27.62 707.83,72.77 693.01,88.95 690.58,96.75 678.7,93.74 674.27,110.47 679.81,128.97 678.24,176.83 671.67,181.53 666.73,230.63 640.93,272.07 636.2,310.94 648.54,355.63 676.87,355.5 677.41,374.08 681.73,378.25 682.78,389.32 690.74,389.32 691.08,394.7 686.73,394.84 686.56,402.79 688.94,404 687.39,408.47 688.18,410.86 694.87,411.06 695.57,418.55 689.44,418.71 692.2,444.59 675.71,462.4 688.54,509.28 672.47,520.75 683.74,539.16 686.6,536.98 710.23,553.02 761.11,591.96 779.01,616.95 786.37,629.93 784.07,636.17 778.88,639.97 779.18,643.61 789.31,655.5 797.77,677.04 796.31,677.52 816.17,723.23 896.62,697.04 898.14,702.04 912.74,702.48 926.64,710.6 938.54,712.82 949.41,729.79 955.8,772.74 996,855.93 985.32,862.05 862.6,965.03 819.39,939.97 810.71,938.37 802.47,927.87 797.72,926.78 792.68,931.61 788.76,931.82 769.95,922.6 765.8,924.54 753.34,918.8 748.68,921.1 744.31,911.98 740.85,912.28 737.08,907.87 730.96,895.72 724.25,893.09 723.58,890.82 718.62,892.91 706.61,890.26 709.62,860.83 707.98,838.01 697.89,837.33 697.67,840.69 673.85,838.21 660.92,868.3 652.07,880 645.17,910.88 636.66,916.7 623.18,934.45 618.41,953.3 603.13,967.2 589,959 561.15,950.55 546.43,941.13 544.65,937.52 525.92,929.35 535.96,924.7 530.98,914.87 522.67,906.34ZM202.89,253.63L202.56,253.43 202.68,253.35 202.83,253.17 202.83,253.16 205.39,254.68 205.77,254.81 206.1,254.93 206.21,255.08 206.21,255.22 206.03,255.37 205.88,255.47 205.71,255.47ZM213.54,240.83L212.76,240.44 212.74,240.43 212.87,240.27 213.06,240.37 214.25,240.92 214.37,241.03 214.39,241.14 214.3,241.18ZM251.12,214.76L257.29,226.95 256.47,228.35 254.45,226.32 250.94,217.64 244.59,215.21 244.07,208.9 238.27,207.58 241.16,203.8Z"/></svg>
